<svg width="36" height="36" viewBox="0 0 36 36" fill="none" xmlns="http://www.w3.org/2000/svg">
<g clip-path="url(#clip0_5_36)">
<path d="M0.739746 36H12.9452C18.7329 36 23.4247 31.3082 23.4247 25.5205H11.2192C5.43156 25.5205 0.739746 30.2123 0.739746 36Z" fill="#F22BB2"/>
<path d="M1.28571 10.4795V25.8904C7.07335 25.8904 11.7652 21.1986 11.7652 15.411V0C5.97752 0 1.28571 4.69181 1.28571 10.4795Z" fill="#8C30F5"/>
<path d="M35.2603 0H23.0548C17.2671 0 12.5753 4.69181 12.5753 10.4795H24.7808C30.5684 10.4795 35.2603 5.78764 35.2603 0Z" fill="#FE9A22"/>
<path d="M35.2603 24.9041V9.49315C29.4726 9.49315 24.7808 14.185 24.7808 19.9726V35.3836C30.5685 35.3836 35.2603 30.6917 35.2603 24.9041Z" fill="#2EC5CE"/>
</g>
<defs>
<clipPath id="clip0_5_36">
<rect width="36" height="36" fill="white"/>
</clipPath>
</defs>
</svg>
